<svg aria-hidden="true" style="position: absolute; width: 0; height: 0; overflow: hidden;" version="1.1" xmlns="http://www.w3.org/2000/svg" xmlns:xlink="http://www.w3.org/1999/xlink">
<defs>
<symbol id="icon-calculator" viewBox="0 0 32 32" fill="currentcolor">
<title>calculator</title>
<path d="M12 2h-10c-1.1 0-2 0.9-2 2v10c0 1.1 0.9 2 2 2h10c1.1 0 2-0.9 2-2v-10c0-1.1-0.9-2-2-2zM12 10h-10v-2h10v2zM28 2h-10c-1.1 0-2 0.9-2 2v26c0 1.1 0.9 2 2 2h10c1.1 0 2-0.9 2-2v-26c0-1.1-0.9-2-2-2zM28 20h-10v-2h10v2zM28 14h-10v-2h10v2zM12 18h-10c-1.1 0-2 0.9-2 2v10c0 1.1 0.9 2 2 2h10c1.1 0 2-0.9 2-2v-10c0-1.1-0.9-2-2-2zM12 26h-4v4h-2v-4h-4v-2h4v-4h2v4h4v2z"></path>
</symbol>
<symbol id="icon-envelop" viewBox="0 0 32 32" fill="currentcolor">
<title>envelop</title>
<path d="M29 4h-26c-1.65 0-3 1.35-3 3v20c0 1.65 1.35 3 3 3h26c1.65 0 3-1.35 3-3v-20c0-1.65-1.35-3-3-3zM12.461 17.199l-8.461 6.59v-15.676l8.461 9.086zM5.512 8h20.976l-10.488 7.875-10.488-7.875zM12.79 17.553l3.21 3.447 3.21-3.447 6.58 8.447h-19.579l6.58-8.447zM19.539 17.199l8.461-9.086v15.676l-8.461-6.59z"></path>
</symbol>
<symbol id="icon-user-tie" viewBox="0 0 32 32" fill="currentcolor">
<title>user-tie</title>
<path d="M10 6c0-3.314 2.686-6 6-6s6 2.686 6 6c0 3.314-2.686 6-6 6s-6-2.686-6-6zM24.002 14h-1.107l-6.222 12.633 2.327-11.633-3-3-3 3 2.327 11.633-6.222-12.633h-1.107c-3.998 0-3.998 2.687-3.998 6v10h24v-10c0-3.313 0-6-3.998-6z"></path>
</symbol>
<symbol id="icon-briefcase" viewBox="0 0 32 32" fill="currentcolor">
<title>briefcase</title>
<path d="M30 8h-8v-2c0-1.1-0.9-2-2-2h-8c-1.1 0-2 0.9-2 2v2h-8c-1.1 0-2 0.9-2 2v18c0 1.1 0.9 2 2 2h28c1.1 0 2-0.9 2-2v-18c0-1.1-0.9-2-2-2zM12 6.004c0.001-0.001 0.002-0.003 0.004-0.004h7.993c0.001 0.001 0.003 0.002 0.004 0.004v1.996h-8v-1.996zM30 16h-4v3c0 0.55-0.45 1-1 1h-2c-0.55 0-1-0.45-1-1v-3h-12v3c0 0.55-0.45 1-1 1h-2c-0.55 0-1-0.45-1-1v-3h-4v-2h28v2z"></path>
</symbol>
<symbol id="icon-document-file-html" viewBox="0 0 32 32">
<title>document-file-html</title>
<path d="M19 26v2.003c0 1.107-0.894 1.997-1.997 1.997h-15.005c-1.107 0-1.997-0.899-1.997-2.007v-22.985c0-1.109 0.899-2.007 2.009-2.007h9.991v6.002c0 1.111 0.898 1.998 2.006 1.998h4.994v2h-12.993c-1.661 0-3.007 1.342-3.007 2.999v7.002c0 1.656 1.336 2.999 3.007 2.999h12.993zM13 3v5.997c0 0.554 0.451 1.003 0.991 1.003h5.009l-6-7zM6.007 14h22.985c1.109 0 2.007 0.892 2.007 1.992v7.016c0 1.092-0.899 1.992-2.007 1.992h-22.985c-1.109 0-2.007-0.892-2.007-1.992v-7.016c0-1.092 0.899-1.992 2.007-1.992zM29 22h-4v-6h-1v7h5v-1zM14 17v6h1v-6h2v-1h-5v1h2zM10 19h-3v-3h-1v7h1v-3h3v3h1v-7h-1v3zM20.5 19l-1.5-3h-1v7h1v-5l1 2h1l1-2v5h1v-7h-1l-1.5 3z"></path>
</symbol>
<symbol id="icon-bootstrap" viewBox="0 0 32 32">
<title>bootstrap</title>
<path fill="#563d7c" style="fill: var(--color1, #563d7c)" d="M26.667 0h-21.333c-2.943 0.008-5.325 2.391-5.333 5.333v21.333c0 2.933 2.4 5.333 5.333 5.333h21.333c2.933 0 5.333-2.4 5.333-5.333v-21.333c0-2.933-2.4-5.333-5.333-5.333zM23.751 22.473c-0.267 0.643-0.689 1.209-1.231 1.645-0.56 0.453-1.269 0.827-2.143 1.093-0.872 0.271-1.909 0.407-3.111 0.407h-8.576v-18.667h9.069c1.677 0 3.021 0.377 4.027 1.147 1.013 0.773 1.517 1.925 1.517 3.48 0 0.94-0.229 1.747-0.691 2.413-0.459 0.663-1.12 1.181-1.973 1.541v0.061c1.139 0.24 2.020 0.78 2.6 1.62s0.877 1.901 0.877 3.183c0 0.717-0.139 1.4-0.4 2.037l0.033 0.036zM20.049 17.873c-0.547-0.5-1.315-0.744-2.307-0.744h-5.763v5.824h5.779c0.987 0 1.76-0.256 2.307-0.773 0.547-0.513 0.827-1.245 0.827-2.187-0.009-0.92-0.28-1.632-0.827-2.12h-0.023zM19.249 14.109c0.528-0.448 0.787-1.089 0.787-1.925 0-0.939-0.233-1.605-0.707-1.987-0.469-0.38-1.147-0.577-2.037-0.577h-5.333v5.151h5.333c0.777 0 1.44-0.227 1.952-0.661z"></path>
</symbol>
<symbol id="icon-csswizardry" viewBox="0 0 32 32">
<title>csswizardry</title>
<path fill="#f43059" style="fill: var(--color2, #f43059)" d="M0.040 21.904v-20.413c0-0.824 0.667-1.491 1.489-1.491h28.871c0.832 0 1.493 0.667 1.493 1.493v19.68c-0.893-0.547-1.947-0.821-3.143-0.821-1.672 0-2.94 0.4-3.805 1.195-0.867 0.797-1.293 1.771-1.293 2.967 0 1.293 0.44 2.253 1.333 2.867 0.52 0.38 1.48 0.72 2.853 1.016l1.4 0.32c0.84 0.177 1.427 0.4 1.813 0.613 0.373 0.244 0.573 0.583 0.573 1.020 0 0.755-0.387 1.273-1.16 1.531l-0.040 0.021h-2.947c-0.383-0.139-0.68-0.339-0.92-0.6-0.24-0.299-0.4-0.733-0.48-1.351h-2.64c0 0.755 0.137 1.393 0.44 1.973h-2.24c0.253-0.52 0.4-1.097 0.4-1.756 0-1.173-0.4-2.067-1.181-2.688-0.499-0.396-1.253-0.713-2.251-0.956l-2.293-0.536c-0.88-0.187-1.453-0.373-1.733-0.533-0.413-0.24-0.613-0.6-0.613-1.053 0-0.507 0.213-0.907 0.627-1.187 0.44-0.28 1-0.413 1.72-0.413 0.653 0 1.173 0.12 1.613 0.347 0.659 0.341 1 0.92 1.053 1.716h2.667c-0.040-1.395-0.553-2.471-1.533-3.205-0.992-0.733-2.167-1.113-3.56-1.113-1.673 0-2.927 0.4-3.804 1.173-0.853 0.777-1.293 1.773-1.293 2.947 0 1.293 0.44 2.251 1.333 2.867 0.536 0.36 1.493 0.697 2.867 1.013l1.393 0.32c0.813 0.18 1.413 0.38 1.813 0.62 0.373 0.24 0.573 0.573 0.573 1.013 0 0.76-0.4 1.253-1.173 1.533h-2.987c-0.379-0.141-0.693-0.341-0.92-0.62-0.24-0.293-0.413-0.752-0.493-1.352h-2.689c0 0.744 0.14 1.4 0.427 1.973h-2.787c0.44-0.693 0.737-1.493 0.884-2.387h-2.737c-0.187 0.68-0.416 1.197-0.7 1.533-0.347 0.44-0.8 0.72-1.36 0.86h-1.636c-0.6-0.14-1.116-0.477-1.533-1.013-0.619-0.744-0.917-1.859-0.917-3.333 0-1.493 0.307-2.627 0.88-3.44 0.6-0.817 1.373-1.213 2.387-1.213 1 0 1.733 0.28 2.253 0.859 0.28 0.32 0.52 0.8 0.693 1.435h2.773c-0.040-0.824-0.347-1.653-0.915-2.48-1.029-1.467-2.659-2.2-4.885-2.2-1.547 0-2.845 0.48-3.88 1.413l-0.067-0.147zM31.899 26.752v-2.072h-0.688c-0.047-0.796-0.4-1.363-1.044-1.699-0.417-0.219-0.956-0.331-1.591-0.331-0.72 0-1.273 0.147-1.693 0.429-0.416 0.287-0.637 0.691-0.637 1.203 0 0.473 0.221 0.827 0.636 1.060 0.293 0.14 0.867 0.339 1.747 0.539l2.293 0.547c0.4 0.080 0.747 0.2 1.067 0.307l-0.067 0.040z"></path>
</symbol>
<symbol id="icon-javascript" viewBox="0 0 32 32">
<title>javascript</title>
<path fill="#f7df1e" style="fill: var(--color3, #f7df1e)" d="M0 0h32v32h-32v-32zM29.379 24.368c-0.233-1.46-1.184-2.687-4.004-3.831-0.981-0.46-2.072-0.78-2.396-1.52-0.121-0.44-0.14-0.68-0.061-0.94 0.2-0.861 1.22-1.12 2.020-0.88 0.52 0.16 1 0.56 1.301 1.2 1.379-0.901 1.379-0.901 2.34-1.5-0.36-0.56-0.539-0.801-0.781-1.040-0.84-0.94-1.959-1.42-3.779-1.379l-0.94 0.119c-0.901 0.22-1.76 0.7-2.28 1.34-1.52 1.721-1.081 4.721 0.759 5.961 1.82 1.36 4.481 1.659 4.821 2.94 0.32 1.56-1.16 2.060-2.621 1.88-1.081-0.24-1.68-0.781-2.34-1.781l-2.44 1.401c0.28 0.64 0.6 0.919 1.080 1.479 2.32 2.341 8.12 2.221 9.161-1.339 0.039-0.12 0.32-0.94 0.099-2.2l0.061 0.089zM17.401 14.708h-2.997c0 2.584-0.012 5.152-0.012 7.74 0 1.643 0.084 3.151-0.184 3.615-0.44 0.919-1.573 0.801-2.088 0.64-0.528-0.261-0.796-0.621-1.107-1.14-0.084-0.14-0.147-0.261-0.169-0.261l-2.433 1.5c0.407 0.84 1 1.563 1.765 2.023 1.14 0.68 2.672 0.9 4.276 0.54 1.044-0.301 1.944-0.921 2.415-1.881 0.68-1.24 0.536-2.76 0.529-4.461 0.016-2.739 0-5.479 0-8.239l0.005-0.075z"></path>
</symbol>
<symbol id="icon-mongodb" viewBox="0 0 32 32">
<title>mongodb</title>
<path fill="#47a248" style="fill: var(--color4, #47a248)" d="M22.907 12.691c-1.684-7.413-5.656-9.849-6.083-10.781-0.469-0.657-0.977-1.909-0.977-1.909-0.003 0.025-0.005 0.041-0.007 0.065v0.017h-0.001c-0.003 0.020-0.004 0.033-0.005 0.052v0.020h-0.003c0 0.013-0.003 0.024-0.003 0.035v0.035h-0.004c-0.001 0.011-0.001 0.024-0.004 0.033v0.028h-0.003c0 0.009 0 0.020-0.003 0.028v0.027h-0.003c0 0.013-0.001 0.029-0.003 0.043v0.003c-0.004 0.023-0.008 0.045-0.012 0.067v0.011h-0.003c-0.001 0.005-0.004 0.011-0.004 0.016v0.023h-0.004v0.029h-0.007v0.024h-0.007v0.028h-0.005v0.025h-0.005v0.023h-0.008v0.019h-0.005v0.024h-0.005v0.019h-0.007v0.017h-0.004v0.020h-0.005c-0.001 0.001-0.001 0.004-0.001 0.005v0.013h-0.004c-0.001 0.003-0.001 0.005-0.001 0.008v0.008h-0.003c-0.001 0.004-0.003 0.011-0.003 0.013-0.004 0.009-0.009 0.019-0.013 0.028v0.003c-0.003 0.003-0.005 0.007-0.007 0.009v0.011h-0.005v0.011h-0.007v0.011h-0.004v0.013h-0.008v0.019h-0.005v0.005h-0.005v0.011h-0.005v0.015h-0.005v0.011h-0.008v0.015h-0.005v0.011h-0.007v0.011h-0.004v0.013h-0.007v0.011h-0.005v0.008h-0.005v0.011h-0.008v0.012h-0.005v0.008h-0.007v0.011h-0.005v0.015h-0.007v0.005h-0.004v0.011h-0.008v0.005h-0.005v0.013h-0.005v0.005h-0.005v0.011h-0.007v0.008h-0.004l-0.003 0.005v0.005h-0.003c-0.001 0.003-0.003 0.003-0.003 0.005v0.001h-0.001c-0.001 0.004-0.003 0.007-0.005 0.009v0.004h-0.001c-0.007 0.008-0.011 0.016-0.016 0.024v0.001c-0.003 0.003-0.009 0.008-0.012 0.013v0.003h-0.001c-0.001 0.001-0.004 0.003-0.004 0.004v0.004h-0.003l-0.004 0.004v0.001h-0.001c0 0.001-0.003 0.003-0.004 0.005v0.005h-0.004l-0.003 0.003v0.003h-0.003c0 0.003-0.003 0.003-0.003 0.004v0.004h-0.005c0 0.001-0.001 0.003-0.003 0.004v0.008h-0.004v0.005h-0.005v0.008h-0.005v0.011h-0.007v-0.011h-0.007v0.005h-0.005v0.008h-0.007v0.011h-0.007v0.005h-0.005v0.008h-0.005v0.005h-0.005v0.011h-0.008v0.005h-0.005v0.008h-0.007v0.005h-0.005v0.007h-0.007v0.013h-0.003v0.005h-0.008v0.007h-0.005v0.003h-0.005v0.005h-0.007v0.013h-0.005v0.005h-0.007v0.005h-0.005v0.008h-0.007v0.005h-0.007v0.005h-0.005v0.005h-0.005v0.013h-0.005v0.007h-0.008v0.005h-0.005v0.005h-0.007v0.008h-0.005v0.005h-0.007v0.009h-0.005v0.005h-0.008v0.008h-0.003v0.005h-0.005v0.005h-0.007v0.005h-0.005v0.008h-0.007v0.005h-0.004c-0.001 0.001-0.001 0.003-0.001 0.003v0.003h-0.003l-0.005 0.005s-0.003 0.003-0.005 0.004v0.008h-0.005v0.007h-0.005v0.005h-0.005v0.005h-0.004l-0.004 0.004v0.004h-0.003l-0.003 0.003v0.004h-0.003c-0.007 0.008-0.009 0.013-0.019 0.021-0.003 0.003-0.011 0.009-0.016 0.013-0.016 0.011-0.036 0.028-0.052 0.043-0.011 0.007-0.021 0.016-0.029 0.023v0.001h-0.001c-0.021 0.017-0.041 0.033-0.065 0.052v0.001c-0.032 0.027-0.063 0.052-0.099 0.083v-0.001h-0.003c-0.076 0.063-0.156 0.133-0.248 0.212v0.001h-0.001c-0.225 0.197-0.493 0.451-0.793 0.757l-0.025 0.025c-1.813 1.876-4.671 5.785-4.972 12.103-0.027 0.523-0.021 1.031 0.008 1.525v0.012c0.145 2.489 0.927 4.615 1.904 6.341v0.001c0.389 0.688 0.809 1.313 1.235 1.873v0.001c1.469 1.94 2.969 3.089 3.352 3.368 0.588 1.364 0.533 3.705 0.533 3.705l0.859 0.287s-0.175-2.268 0.071-3.363c0.076-0.343 0.256-0.635 0.465-0.883 0.141-0.1 0.56-0.401 1.063-0.86 0.024-0.025 0.037-0.048 0.059-0.072 2.028-1.891 5.816-6.547 4.517-14.132z"></path>
</symbol>
<symbol id="icon-node-dot-js" viewBox="0 0 32 32">
<title>node-dot-js</title>
<path fill="#393" style="fill: var(--color5, #393)" d="M15.247 0.204l-12.493 7.24c-0.467 0.271-0.752 0.771-0.751 1.311v14.485c0 0.539 0.287 1.040 0.752 1.309l12.493 7.247c0.467 0.271 1.040 0.271 1.507 0l12.488-7.244c0.467-0.273 0.752-0.771 0.753-1.309v-14.488c0-0.539-0.288-1.040-0.755-1.312l-12.485-7.24c-0.467-0.271-1.043-0.271-1.507 0z"></path>
</symbol>
<symbol id="icon-react" viewBox="0 0 32 32">
<title>react</title>
<path fill="#61dafb" style="fill: var(--color6, #61dafb)" d="M16 13.148c-1.575 0-2.852 1.277-2.852 2.852s1.277 2.852 2.852 2.852v0c1.575 0 2.852-1.277 2.852-2.852s-1.277-2.852-2.852-2.852v0zM8.011 21.673l-0.629-0.16c-4.691-1.185-7.381-3.197-7.381-5.519s2.691-4.333 7.381-5.519l0.629-0.159 0.177 0.624c0.545 1.86 1.163 3.443 1.899 4.957l-0.082-0.186 0.135 0.284-0.135 0.284c-0.656 1.329-1.275 2.912-1.761 4.551l-0.056 0.22-0.177 0.623zM7.089 11.933c-3.565 1.001-5.753 2.533-5.753 4.061 0 1.527 2.188 3.059 5.753 4.061 0.512-1.62 1.046-2.965 1.662-4.263l-0.086 0.202c-0.531-1.098-1.066-2.443-1.511-3.828l-0.065-0.234zM23.989 21.673l-0.177-0.625c-0.544-1.859-1.162-3.441-1.9-4.954l0.081 0.184-0.135-0.284 0.135-0.284c0.656-1.329 1.275-2.911 1.762-4.55l0.056-0.221 0.177-0.624 0.631 0.159c4.689 1.185 7.38 3.197 7.38 5.52s-2.691 4.333-7.38 5.519l-0.631 0.16zM23.335 15.995c0.64 1.385 1.169 2.747 1.576 4.061 3.567-1.003 5.753-2.535 5.753-4.061 0-1.528-2.188-3.059-5.753-4.061-0.511 1.619-1.045 2.963-1.662 4.262l0.086-0.2zM7.080 11.927l-0.177-0.623c-1.319-4.648-0.919-7.979 1.097-9.141 1.977-1.141 5.152 0.207 8.479 3.621l0.453 0.465-0.453 0.465c-1.146 1.19-2.207 2.482-3.162 3.853l-0.068 0.103-0.18 0.257-0.313 0.027c-1.875 0.151-3.596 0.439-5.264 0.86l0.218-0.047-0.629 0.159zM9.608 3.087c-0.357 0-0.673 0.077-0.94 0.231-1.325 0.764-1.56 3.42-0.647 7.004 1.21-0.285 2.681-0.521 4.18-0.658l0.131-0.010c0.894-1.264 1.792-2.37 2.756-3.414l-0.020 0.022c-2.080-2.025-4.049-3.175-5.46-3.175zM22.393 30.236c-0.001 0-0.001 0 0 0-1.9 0-4.34-1.431-6.872-4.031l-0.453-0.465 0.453-0.465c1.146-1.19 2.206-2.482 3.16-3.854l0.068-0.103 0.18-0.257 0.312-0.027c1.875-0.15 3.597-0.438 5.267-0.858l-0.218 0.046 0.629-0.159 0.179 0.624c1.316 4.645 0.917 7.977-1.099 9.139-0.449 0.259-0.988 0.411-1.562 0.411-0.016 0-0.031-0-0.047-0l0.002 0zM16.932 25.728c2.080 2.025 4.049 3.175 5.46 3.175h0.001c0.356 0 0.673-0.077 0.939-0.231 1.325-0.764 1.561-3.421 0.647-7.005-1.212 0.286-2.682 0.522-4.182 0.658l-0.13 0.010c-0.893 1.265-1.791 2.371-2.755 3.416l0.020-0.022zM24.92 11.927l-0.629-0.159c-1.453-0.376-3.175-0.664-4.939-0.806l-0.111-0.007-0.312-0.027-0.18-0.257c-1.021-1.474-2.082-2.766-3.237-3.966l0.009 0.010-0.453-0.465 0.453-0.465c3.325-3.413 6.499-4.761 8.479-3.621 2.016 1.163 2.416 4.493 1.099 9.14l-0.179 0.624zM19.667 9.653c1.523 0.139 2.969 0.364 4.312 0.668 0.915-3.584 0.679-6.24-0.647-7.004-1.317-0.761-3.793 0.405-6.4 2.944 0.943 1.022 1.841 2.128 2.666 3.289l0.069 0.103zM9.608 30.236c-0.014 0-0.030 0-0.046 0-0.574 0-1.113-0.152-1.577-0.419l0.015 0.008c-2.016-1.161-2.416-4.492-1.097-9.139l0.176-0.624 0.629 0.159c1.54 0.388 3.239 0.661 5.047 0.812l0.313 0.027 0.179 0.257c1.022 1.475 2.083 2.767 3.239 3.967l-0.010-0.010 0.453 0.465-0.453 0.465c-2.531 2.6-4.971 4.031-6.868 4.031zM8.021 21.667c-0.915 3.584-0.679 6.241 0.647 7.005 1.316 0.751 3.791-0.407 6.4-2.944-0.943-1.022-1.841-2.129-2.667-3.29l-0.069-0.103c-1.629-0.146-3.099-0.382-4.534-0.711l0.224 0.043zM16 22.504c-1.097 0-2.225-0.048-3.355-0.141l-0.313-0.027-0.18-0.257c-0.544-0.768-1.139-1.691-1.697-2.639l-0.103-0.19c-0.452-0.758-0.971-1.732-1.45-2.728l-0.105-0.243-0.133-0.284 0.133-0.284c0.584-1.239 1.102-2.212 1.658-3.161l-0.103 0.191c0.552-0.955 1.159-1.907 1.8-2.829l0.18-0.257 0.313-0.027c1.005-0.090 2.174-0.142 3.355-0.142s2.35 0.052 3.505 0.153l-0.15-0.011 0.312 0.027 0.179 0.257c1.177 1.666 2.294 3.567 3.252 5.56l0.104 0.24 0.135 0.284-0.135 0.284c-1.058 2.232-2.176 4.133-3.439 5.925l0.083-0.125-0.179 0.257-0.312 0.027c-1.129 0.093-2.259 0.141-3.356 0.141zM13.071 21.059c1.973 0.148 3.885 0.148 5.86 0 1.004-1.445 1.978-3.104 2.827-4.836l0.101-0.228c-0.947-1.958-1.922-3.617-3.012-5.19l0.083 0.126c-0.877-0.071-1.898-0.111-2.929-0.111s-2.052 0.040-3.063 0.119l0.134-0.008c-1.008 1.447-1.983 3.106-2.83 4.84l-0.099 0.224c0.951 1.96 1.926 3.619 3.014 5.193l-0.085-0.13z"></path>
</symbol>
</defs>
</svg>
